<svg width="1440" height="900" viewBox="0 0 1440 900" fill="none" xmlns="http://www.w3.org/2000/svg">
<rect width="1440" height="900" fill="#F1EEEE"/>
<path d="M1039 482.877C1033.5 473.877 1037.83 466.574 1051 461.377C1063.19 466.504 1066.67 474.588 1065.09 483.203C1064.14 488.378 1061.37 493.743 1057.56 498.775C1053.88 503.65 1049.22 508.212 1044.32 511.981C1032.32 521.21 1018.85 525.685 1014.5 518.377C1003.5 499.877 1020.5 494.877 1029.5 497.877C1038.5 500.877 1044.5 491.877 1039 482.877Z" fill="white"/>
<path d="M1009.5 473.377C1009.5 475.034 1008.16 476.377 1006.5 476.377C1004.84 476.377 1003.5 475.034 1003.5 473.377C1003.5 471.72 1004.84 470.377 1006.5 470.377C1008.16 470.377 1009.5 471.72 1009.5 473.377Z" fill="white"/>
<path d="M996.5 470.377C996.5 472.034 995.157 473.377 993.5 473.377C991.843 473.377 990.5 472.034 990.5 470.377C990.5 468.72 991.843 467.377 993.5 467.377C995.157 467.377 996.5 468.72 996.5 470.377Z" fill="white"/>
<path fill-rule="evenodd" clip-rule="evenodd" d="M1006.5 476.377C1008.16 476.377 1009.5 475.034 1009.5 473.377C1009.5 471.72 1008.16 470.377 1006.5 470.377C1004.84 470.377 1003.5 471.72 1003.5 473.377C1003.5 475.034 1004.84 476.377 1006.5 476.377ZM993.5 473.377C995.157 473.377 996.5 472.034 996.5 470.377C996.5 468.72 995.157 467.377 993.5 467.377C991.843 467.377 990.5 468.72 990.5 470.377C990.5 472.034 991.843 473.377 993.5 473.377Z" fill="white"/>
<path d="M1017 573.877H968.5L948.5 634.377L963.5 636.814L988.5 640.877L1017 573.877Z" fill="white"/>
<path fill-rule="evenodd" clip-rule="evenodd" d="M1067 573.877C1155.11 551.615 1127.88 520.957 1065.09 483.203C1064.14 488.378 1061.37 493.743 1057.56 498.775C1053.88 503.65 1049.22 508.212 1044.32 511.981C1032.32 521.21 1018.85 525.685 1014.5 518.377C1003.5 499.877 1020.5 494.877 1029.5 497.877C1038.5 500.877 1044.5 491.877 1039 482.877C1033.5 473.877 1037.83 466.574 1051 461.377C1026 425.377 991.129 438.211 972 474.877C975.938 479.532 978.694 480.621 984.5 479.877L986.569 494.877L988.5 508.877C922.853 530.475 876.536 546.992 925.137 588.877L918.5 609.877L948.5 634.377L968.5 573.877H1017L988.5 640.877L963.5 636.814V730.877H1017H1083.5L1050 703.877C1061.82 653.253 1065.63 624.821 1067 573.877ZM1006.5 476.377C1008.16 476.377 1009.5 475.034 1009.5 473.377C1009.5 471.72 1008.16 470.377 1006.5 470.377C1004.84 470.377 1003.5 471.72 1003.5 473.377C1003.5 475.034 1004.84 476.377 1006.5 476.377ZM993.5 473.377C995.157 473.377 996.5 472.034 996.5 470.377C996.5 468.72 995.157 467.377 993.5 467.377C991.843 467.377 990.5 468.72 990.5 470.377C990.5 472.034 991.843 473.377 993.5 473.377Z" fill="white"/>
<path d="M1039 508.877C1040.86 509.946 1042.64 510.98 1044.32 511.981M1044.32 511.981C1081.78 534.2 1077 539.877 1069.5 539.877M1044.32 511.981C1049.22 508.212 1053.88 503.65 1057.56 498.775M1044.32 511.981C1032.32 521.21 1018.85 525.685 1014.5 518.377C1003.5 499.877 1020.5 494.877 1029.5 497.877C1038.5 500.877 1044.5 491.877 1039 482.877C1033.5 473.877 1037.83 466.574 1051 461.377M1051 494.877L1057.56 498.775M1057.56 498.775L1067 504.377M1057.56 498.775C1061.37 493.743 1064.14 488.378 1065.09 483.203M1059.5 479.877C1061.39 480.992 1063.26 482.1 1065.09 483.203M1065.09 483.203C1127.88 520.957 1155.11 551.615 1067 573.877C1065.63 624.821 1061.82 653.253 1050 703.877L1083.5 730.877H1017M1065.09 483.203C1066.67 474.588 1063.19 466.504 1051 461.377M1017 730.877H963.5V636.814M1017 730.877V649.877M948.5 634.377L918.5 609.877L925.137 588.877C876.536 546.992 922.853 530.475 988.5 508.877M948.5 634.377L968.5 573.877M948.5 634.377L963.5 636.814M968.5 573.877H1017L988.5 640.877L963.5 636.814M968.5 573.877L938.5 547.877L934.5 561.397M938.5 582.877L927 573.877M944 569.377L934.5 561.397M934.5 561.397L931.5 558.877M934.5 596.377C871.261 548.879 919.07 531.719 988.5 508.877M988.5 508.877L986.569 494.877M1051 461.377C1026 425.377 991.129 438.211 972 474.877C975.938 479.532 978.694 480.621 984.5 479.877L986.569 494.877M986.569 494.877C1008.85 497.44 1017.5 491.646 1029.5 474.877M1009.5 473.377C1009.5 475.034 1008.16 476.377 1006.5 476.377C1004.84 476.377 1003.5 475.034 1003.5 473.377C1003.5 471.72 1004.84 470.377 1006.5 470.377C1008.16 470.377 1009.5 471.72 1009.5 473.377ZM996.5 470.377C996.5 472.034 995.157 473.377 993.5 473.377C991.843 473.377 990.5 472.034 990.5 470.377C990.5 468.72 991.843 467.377 993.5 467.377C995.157 467.377 996.5 468.72 996.5 470.377Z" stroke="black"/>
<path d="M1239.5 580.377V579.877H1239H1218.5H1197H1196.5V580.377V615.877H1140V570.877H1299V615.877H1239.5V580.377ZM1299 569.877H1140V524.877H1299V569.877ZM1238.5 580.877V615.877H1219V580.877H1238.5ZM1218 615.877H1197.5V580.877H1218V615.877Z" fill="white" stroke="black"/>
<path d="M1168.06 563.377C1165.61 557.85 1161.25 553.209 1154.19 549.837C1154.34 549.236 1154.46 548.678 1154.61 548.124C1154.64 548.013 1154.73 547.895 1154.85 547.812C1156.17 546.846 1157.54 545.91 1158.82 544.918C1161.74 542.652 1163.99 540.087 1165.95 537.396C1166.41 536.767 1167.84 536.589 1168.76 537C1168.39 537.331 1168.01 537.654 1167.68 537.997C1164.05 541.668 1161.34 545.583 1160.86 550.072C1160.64 552.097 1161.65 553.768 1164.12 554.975C1165.22 555.51 1166.32 556.037 1167.43 556.555C1170.11 557.803 1172.94 558.659 1176.32 558.398C1177.92 558.274 1179.43 557.952 1180.1 556.984C1181.22 555.348 1182.35 553.649 1182.84 551.895C1183.28 550.306 1182.94 548.604 1182.81 546.956C1182.65 544.765 1181.95 542.636 1180.85 540.573C1180.44 539.789 1180.57 539.288 1181.61 538.62C1186.16 543.342 1192.65 543.948 1200.09 542.545C1200.2 543.045 1200.32 543.521 1200.37 543.999C1200.38 544.102 1200.19 544.27 1200.03 544.319C1195.35 545.765 1191.32 547.773 1188.2 550.582C1187.16 551.526 1185.9 552.399 1185.11 553.435C1183.3 555.826 1182.86 558.437 1183.08 561.102C1183.14 561.854 1183.25 562.605 1183.35 563.376H1197.49C1198.67 561.247 1199.97 559.158 1200.95 557.003C1202.48 553.655 1203.67 550.24 1203.48 546.691C1203.4 545.227 1203.16 543.765 1202.95 542.306C1202.41 538.614 1200.13 535.612 1195.28 533.723C1193.99 533.222 1192.54 532.803 1191.09 532.645C1189.81 532.506 1188.42 532.736 1187.11 532.893C1186.03 533.021 1184.91 533.174 1183.95 533.509C1181.97 534.2 1180.8 535.463 1179.57 536.67C1177.21 539.007 1176.32 541.746 1175.27 544.408C1174.67 545.929 1174.79 547.581 1174.55 549.171C1174.53 549.329 1174.15 549.609 1174.03 549.589C1173.25 549.452 1172.5 549.248 1171.7 549.056C1171.79 548.869 1171.86 548.716 1171.95 548.569C1172.81 547.136 1173.7 545.709 1174.53 544.268C1176.33 541.147 1176.34 537.968 1174.87 534.811C1174.5 534.022 1173.7 533.023 1172.72 532.742C1171.29 532.334 1169.48 532.326 1167.88 532.441C1165.22 532.633 1163.02 533.738 1160.88 534.708C1158.48 535.796 1156.92 537.467 1155.88 539.315C1153.7 543.2 1152.98 547.265 1152.63 551.385C1152.28 555.388 1152.67 559.357 1153.5 563.377H1168.06V563.377Z" fill="white" stroke="black"/>
<path d="M1216.81 562.176C1217.9 562.609 1218.95 563.072 1220.13 563.377H1245.17C1245.27 562.567 1245.49 561.782 1245.37 561.028C1244.88 557.923 1242.85 555.322 1238.62 553.574C1236.99 552.903 1235.31 552.047 1233.44 551.863C1230.25 551.548 1226.9 551.612 1223.61 551.673C1220.13 551.737 1216.83 552.402 1213.98 553.782C1212.88 554.31 1211.9 554.923 1210.81 555.526C1210.47 555.368 1210.13 555.204 1209.96 555.124C1216.3 548.686 1221.41 542.033 1224.6 534.822C1225.64 534.968 1226.73 535.12 1227.85 535.277C1226.99 536.112 1226.21 536.847 1225.46 537.594C1223.22 539.823 1221.36 542.106 1221.91 544.768C1222.58 548.032 1224.75 550.725 1230.08 551.109C1231.55 551.215 1233.21 551.445 1234.51 551.136C1238.76 550.126 1241.43 548.086 1243.17 545.538C1245.31 542.416 1246.43 539.292 1244.53 536.109C1243.48 534.351 1241.93 532.876 1238.47 532.707C1235.68 532.569 1232.89 532.325 1230.09 532.387C1222.81 532.545 1216.43 534.422 1210.84 537.325C1207.3 539.168 1205.19 541.581 1204.65 544.414C1204.22 546.69 1204.76 548.878 1205.57 551.036C1207.26 555.561 1210.26 559.583 1216.81 562.176Z" fill="white" stroke="black"/>
<path d="M1252.49 562.878C1252.81 563.091 1253.14 563.254 1253.48 563.377H1281.35C1285.08 562.557 1288.2 560.532 1289.06 558.037C1289.76 556.008 1289.62 554.016 1288.67 552.046C1286.58 547.699 1283.51 543.944 1275.49 543.259C1273.87 543.121 1272.15 542.702 1270.64 542.911C1267.09 543.404 1263.64 544.212 1260.14 544.855C1259.5 544.972 1258.77 544.907 1258.09 544.927C1258.07 544.821 1258.06 544.715 1258.05 544.609C1258.28 544.545 1258.5 544.467 1258.74 544.419C1264.17 543.309 1269.62 542.218 1275.04 541.091C1278.1 540.455 1280.92 539.502 1283.07 537.93C1283.7 537.469 1284.22 536.742 1284.17 536.159C1284.11 535.427 1283.42 534.713 1282.98 533.998C1282.91 533.881 1282.74 533.751 1282.57 533.703C1277.66 532.335 1272.55 532.017 1267.36 532.789C1264.03 533.287 1260.46 533.553 1258.06 535.453C1257.33 536.033 1256.5 536.563 1255.8 537.159C1254.12 538.61 1252.54 540.119 1252.3 541.987C1252.21 542.669 1252.09 543.638 1252.69 544.018C1255.53 545.824 1258.65 547.44 1262.94 547.592C1263.77 547.622 1264.6 547.613 1265.43 547.624C1268.81 547.669 1272.2 547.728 1275.37 546.762C1276.66 546.369 1277.97 545.989 1279.31 545.589C1279.62 545.885 1279.93 546.183 1280.29 546.533C1276.43 547.621 1273.59 549.351 1271.86 551.741C1270.05 554.234 1270.49 556.717 1272.58 559.165C1271.71 559.157 1271 559.15 1270.3 559.143C1270.25 559.054 1270.21 559.001 1270.2 558.944C1270.18 558.839 1270.18 558.731 1270.18 558.625C1270.1 556.437 1269.94 554.273 1268.36 552.245C1266.67 550.079 1264.16 548.531 1260.7 547.584C1256.84 546.529 1252.94 546.51 1249.29 547.781C1246.28 548.833 1244.54 550.587 1244.5 552.899C1244.47 555.144 1244.65 557.389 1246.96 559.208C1248.63 560.521 1250.66 561.648 1252.49 562.878Z" fill="white" stroke="black"/>
<path d="M1160.5 615.877C1157.65 618.319 1156.26 620.063 1154.5 623.377C1153.14 625.942 1152.46 627.511 1152 630.377C1151.6 632.883 1151.63 634.365 1152 636.877C1152.45 639.932 1153.2 641.576 1154.5 644.377C1156.28 648.209 1157.98 649.989 1160.5 653.377C1163.4 657.267 1165.18 659.344 1168.5 662.877C1172 666.6 1174.35 668.3 1178 671.877C1180.17 674.003 1181.51 675.08 1183.5 677.377C1185.42 679.592 1186.48 680.873 1188 683.377C1189.68 686.141 1190.83 687.714 1191.5 690.877C1192.1 693.743 1191.79 695.462 1191.5 698.377C1191.15 701.96 1190.81 704.022 1189.5 707.377C1188.45 710.063 1187.66 711.523 1186 713.877C1184.32 716.247 1183.2 717.488 1181 719.377C1178.86 721.21 1177.37 721.856 1175 723.377C1172.49 724.986 1171.22 726.153 1168.5 727.377C1165 728.952 1162.75 729.079 1159 729.877C1155.51 730.618 1153.55 731.07 1150 731.377C1146.11 731.714 1143.9 731.628 1140 731.377C1135.67 731.099 1133.22 730.869 1129 729.877C1125.81 729.128 1124.02 728.639 1121 727.377C1117.94 726.097 1116.19 725.329 1113.5 723.377C1111.6 721.994 1110.4 721.269 1109 719.377C1107.6 717.479 1106.95 716.193 1106.5 713.877C1106.13 711.961 1106.02 710.769 1106.5 708.877C1107 706.929 1107.68 705.892 1109 704.377C1110 703.228 1110.71 702.683 1112 701.877C1113.94 700.67 1115.27 700.382 1117.5 699.877C1120.17 699.272 1121.76 699.471 1124.5 699.377C1127.04 699.29 1128.46 699.28 1131 699.377C1133.54 699.474 1135.03 699.264 1137.5 699.877C1139.54 700.383 1140.62 700.444 1142.5 701.377C1143.91 702.076 1144.71 702.48 1146 703.377C1147.03 704.089 1148.33 704.665 1149 705.377C1149.67 706.089 1150.41 706.596 1151 707.377C1151.59 708.158 1152.19 708.951 1152.5 709.877C1152.81 710.803 1152.74 711.431 1152.5 712.377C1152.22 713.48 1152.14 713.435 1151.5 714.377C1150.95 715.185 1149.27 716.775 1148.5 717.377C1147.67 718.025 1146.99 718.516 1146 718.877C1144.09 719.576 1143.01 720.049 1141 720.377C1138.49 720.786 1137.04 720.877 1134.5 720.877C1131.38 720.877 1129.62 720.952 1126.5 720.877C1122.79 720.788 1120.64 719.601 1117 718.877C1114.4 718.36 1113.02 717.711 1110.5 716.877C1105.75 715.305 1103.02 714.529 1098.5 712.377C1095.9 711.137 1094.39 710.485 1092 708.877C1089.47 707.176 1088.14 706.05 1086 703.877C1083.56 701.4 1082.32 699.84 1080.5 696.877C1079.13 694.644 1078.42 693.33 1077.5 690.877C1076.17 687.327 1076.12 685.117 1075.5 681.377C1074.41 674.802 1074.49 671.024 1074 664.377C1073.51 657.744 1073.94 653.961 1073 647.377C1072.21 641.841 1072.05 638.581 1070 633.377C1068.88 630.533 1068 629.042 1066.5 626.377C1064.56 622.93 1063.19 621.17 1061 617.877C1058.51 614.133 1057.33 611.873 1054.5 608.377C1051.98 605.261 1050.24 603.803 1047.5 600.877C1044.57 597.749 1042.87 596.052 1040 592.877C1037.21 589.799 1035.59 588.119 1033 584.877C1031.17 582.59 1030.14 581.301 1028.5 578.877C1026.58 576.05 1025.75 574.313 1024 571.377C1022.03 568.067 1020.62 566.369 1019 562.877C1017.85 560.411 1017.26 558.988 1016.5 556.377C1015.61 553.325 1015.3 551.541 1015 548.377C1014.69 545.072 1014.58 543.17 1015 539.877C1015.33 537.293 1015.74 535.869 1016.5 533.377C1017.29 530.775 1019 526.877 1019 526.877L1021 521.877" stroke="black"/>
<path d="M916.5 647.377L767 592.877V639.377L861.5 675.456L916.5 647.377Z" fill="#00FF00"/>
<path d="M834.5 757.877L943.5 695.877V645.377L834.5 701.377V757.877Z" fill="#00FF00"/>
<path d="M834.5 757.877V701.377L821.5 695.877V751.377L834.5 757.877Z" fill="#00FF00"/>
<path d="M834.5 701.377L943.5 645.377L779 586.877L767 592.877L916.5 647.377L861.5 675.456L821.5 695.877L834.5 701.377Z" fill="#00FF00"/>
<path d="M834.5 757.877L943.5 695.877V645.377M834.5 757.877V701.377M834.5 757.877L821.5 751.377V695.877M943.5 645.377L834.5 701.377M943.5 645.377L779 586.877L767 592.877M834.5 701.377L821.5 695.877M821.5 695.877L861.5 675.456M767 592.877L916.5 647.377L861.5 675.456M767 592.877V639.377L861.5 675.456" stroke="black"/>
<path d="M772.5 684.877L812.5 664.877L704.5 624.877L669 643.877L772.5 684.877Z" fill="#0000FF"/>
<path d="M772.5 698.377V684.877L669 643.877V656.877L772.5 698.377Z" fill="#0000FF"/>
<path d="M772.5 684.877V698.377L812.5 677.377V664.877L772.5 684.877Z" fill="#0000FF"/>
<path d="M772.5 698.377V684.877M772.5 698.377L812.5 677.377V664.877M772.5 698.377L669 656.877V643.877M772.5 684.877L812.5 664.877M772.5 684.877L669 643.877M812.5 664.877L704.5 624.877L669 643.877" stroke="black"/>
<path d="M291.231 293.389V354.889L307.731 347.639L324.231 340.389V325.389C384.54 288.531 331.663 246.134 267.731 218.389L269.825 203.889L274.231 173.389C281.273 174.384 284.497 173.736 289.231 170.889C246.231 108.889 183.98 131.933 217.23 220.889C130.231 246.389 97.2306 281.389 188.231 321.889L176.731 326.389C177.668 330.514 179.887 333.66 182.731 335.864C187.35 339.444 193.62 340.54 198.731 339.308C200.383 338.91 201.914 338.268 203.229 337.389C205.837 335.644 207.594 332.964 207.759 329.389L224.182 313.436L203.229 294.889C218.739 292.812 227.639 297.835 243.731 313.389L233.731 321.889L224.182 313.436L207.759 329.389C207.594 332.964 205.837 335.644 203.229 337.389L194.231 439.889H258.73H328.231L301.731 413.389C305.242 390.255 306.653 376.07 307.731 347.639L291.231 354.889L252.23 346.889L248.23 281.389L291.231 293.389Z" fill="white"/>
<path d="M182.731 335.864L168.231 349.389L178.731 358.889L198.731 339.308C193.62 340.54 187.35 339.444 182.731 335.864Z" fill="white"/>
<path d="M233.731 321.889L243.731 313.389C227.639 297.835 218.739 292.812 203.229 294.889L224.182 313.436L233.731 321.889Z" fill="white"/>
<path d="M291.231 354.889V293.389L248.23 281.389L252.23 346.889L291.231 354.889Z" fill="white"/>
<path d="M291.231 354.889V293.389M291.231 354.889L252.23 346.889L248.23 281.389L291.231 293.389M291.231 354.889L307.731 347.639M291.231 293.389L325.731 277.514V293.514M319.231 298.389L331.231 289.389M319.231 313.389L330.231 306.389M307.731 347.639L324.231 340.389V325.389C384.54 288.531 331.663 246.134 267.731 218.389L269.825 203.889M307.731 347.639C306.653 376.07 305.242 390.255 301.731 413.389L328.231 439.889H258.73M203.229 337.389L194.231 439.889H258.73M203.229 337.389C201.914 338.268 200.383 338.91 198.731 339.308M203.229 337.389C205.837 335.644 207.594 332.964 207.759 329.389M258.73 439.889V361.889M200.731 313.389C201.666 314.543 202.496 315.66 203.229 316.742M269.825 203.889L274.231 173.389C281.273 174.384 284.497 173.736 289.231 170.889C246.231 108.889 183.98 131.933 217.23 220.889C130.231 246.389 97.2306 281.389 188.231 321.889L176.731 326.389C177.668 330.514 179.887 333.66 182.731 335.864M269.825 203.889L259.731 199.389L252.731 207.389L244.231 203.889L233.731 207.389M182.731 335.864L168.231 349.389L178.731 358.889L198.731 339.308M182.731 335.864C187.35 339.444 193.62 340.54 198.731 339.308M198.731 339.308C203.661 338.12 207.512 334.766 207.759 329.389M207.759 329.389C207.916 325.976 206.621 321.748 203.229 316.742M207.759 329.389L224.182 313.436M224.231 313.389L224.182 313.436M203.229 316.742L215.231 305.889M224.182 313.436L203.229 294.889C218.739 292.812 227.639 297.835 243.731 313.389L233.731 321.889L224.182 313.436Z" stroke="black"/>
<path d="M394.231 374.889L543.731 320.389V366.889L449.231 402.968L394.231 374.889Z" fill="#00FF00"/>
<path d="M476.231 485.389L367.231 423.389V372.889L476.231 428.889V485.389Z" fill="#00FF00"/>
<path d="M476.231 485.389V428.889L489.231 423.389V478.889L476.231 485.389Z" fill="#00FF00"/>
<path d="M476.231 428.889L367.231 372.889L531.731 314.389L543.731 320.389L394.231 374.889L449.231 402.968L489.231 423.389L476.231 428.889Z" fill="#00FF00"/>
<path d="M476.231 485.389L367.231 423.389V372.889M476.231 485.389V428.889M476.231 485.389L489.231 478.889V423.389M367.231 372.889L476.231 428.889M367.231 372.889L531.731 314.389L543.731 320.389M476.231 428.889L489.231 423.389M489.231 423.389L449.231 402.968M543.731 320.389L394.231 374.889L449.231 402.968M543.731 320.389V366.889L449.231 402.968" stroke="black"/>
<path d="M538.231 412.389L498.231 392.389L606.231 352.389L641.731 371.389L538.231 412.389Z" fill="#0000FF"/>
<path d="M538.231 425.889V412.389L641.731 371.389V384.389L538.231 425.889Z" fill="#0000FF"/>
<path d="M538.231 412.389V425.889L498.231 404.889V392.389L538.231 412.389Z" fill="#0000FF"/>
<path d="M538.231 425.889V412.389M538.231 425.889L498.231 404.889V392.389M538.231 425.889L641.731 384.389V371.389M538.231 412.389L498.231 392.389M538.231 412.389L641.731 371.389M498.231 392.389L606.231 352.389L641.731 371.389" stroke="black"/>
<circle cx="247.231" cy="174.389" r="2.5" stroke="black"/>
<circle cx="263.231" cy="168.389" r="2.5" stroke="black"/>
<circle cx="316.731" cy="158.889" r="6" fill="white" stroke="black"/>
<circle cx="362.731" cy="164.889" r="9" fill="white" stroke="black"/>
<circle cx="446.231" cy="207.389" r="57.5" fill="white" stroke="black"/>
<path d="M437.981 202.639V204.139H432.981V202.639C432.981 199.005 434.264 195.889 436.831 193.289C439.431 190.689 442.564 189.389 446.231 189.389C449.897 189.389 453.014 190.689 455.581 193.289C458.181 195.889 459.481 199.005 459.481 202.639C459.481 206.272 458.181 209.389 455.581 211.989C453.014 214.589 449.897 215.889 446.231 215.889H442.731V210.889H446.231C448.497 210.889 450.431 210.089 452.031 208.489C453.664 206.855 454.481 204.905 454.481 202.639C454.481 200.372 453.664 198.439 452.031 196.839C450.431 195.205 448.497 194.389 446.231 194.389C443.964 194.389 442.014 195.205 440.381 196.839C438.781 198.439 437.981 200.372 437.981 202.639ZM443.681 225.189C443.047 224.555 442.731 223.789 442.731 222.889C442.731 221.989 443.047 221.222 443.681 220.589C444.314 219.955 445.081 219.639 445.981 219.639C446.881 219.639 447.647 219.955 448.281 220.589C448.914 221.222 449.231 221.989 449.231 222.889C449.231 223.789 448.914 224.555 448.281 225.189C447.647 225.822 446.881 226.139 445.981 226.139C445.081 226.139 444.314 225.822 443.681 225.189Z" fill="white"/>
<path d="M437.981 204.139V204.639H438.481V204.139H437.981ZM432.981 204.139H432.481V204.639H432.981V204.139ZM436.831 193.289L436.477 192.935L436.475 192.937L436.831 193.289ZM455.581 193.289L455.225 193.64L455.227 193.642L455.581 193.289ZM455.581 211.989L455.227 211.635L455.225 211.637L455.581 211.989ZM442.731 215.889H442.231V216.389H442.731V215.889ZM442.731 210.889V210.389H442.231V210.889H442.731ZM452.031 196.839L451.673 197.189L451.681 197.196L452.031 196.839ZM440.381 196.839L440.027 196.485L440.027 196.485L440.381 196.839ZM443.681 225.189L444.034 224.835L444.034 224.835L443.681 225.189ZM443.681 220.589L444.034 220.942L444.034 220.942L443.681 220.589ZM448.281 220.589L448.634 220.235L448.634 220.235L448.281 220.589ZM448.281 225.189L448.634 225.542L448.634 225.542L448.281 225.189ZM437.481 202.639V204.139H438.481V202.639H437.481ZM437.981 203.639H432.981V204.639H437.981V203.639ZM433.481 204.139V202.639H432.481V204.139H433.481ZM433.481 202.639C433.481 199.138 434.712 196.147 437.186 193.64L436.475 192.937C433.816 195.63 432.481 198.873 432.481 202.639H433.481ZM437.184 193.642C439.691 191.136 442.697 189.889 446.231 189.889V188.889C442.431 188.889 439.171 190.242 436.477 192.935L437.184 193.642ZM446.231 189.889C449.764 189.889 452.752 191.135 455.225 193.64L455.936 192.937C453.275 190.242 450.03 188.889 446.231 188.889V189.889ZM455.227 193.642C457.735 196.15 458.981 199.14 458.981 202.639H459.981C459.981 198.871 458.627 195.628 455.934 192.935L455.227 193.642ZM458.981 202.639C458.981 206.138 457.735 209.128 455.227 211.635L455.934 212.342C458.627 209.65 459.981 206.406 459.981 202.639H458.981ZM455.225 211.637C452.752 214.142 449.764 215.389 446.231 215.389V216.389C450.03 216.389 453.275 215.035 455.936 212.34L455.225 211.637ZM446.231 215.389H442.731V216.389H446.231V215.389ZM443.231 215.889V210.889H442.231V215.889H443.231ZM442.731 211.389H446.231V210.389H442.731V211.389ZM446.231 211.389C448.63 211.389 450.69 210.536 452.384 208.842L451.677 208.135C450.171 209.641 448.365 210.389 446.231 210.389V211.389ZM452.384 208.842C454.109 207.117 454.981 205.041 454.981 202.639H453.981C453.981 204.77 453.219 206.594 451.677 208.135L452.384 208.842ZM454.981 202.639C454.981 200.236 454.109 198.175 452.38 196.481L451.681 197.196C453.219 198.703 453.981 200.508 453.981 202.639H454.981ZM452.388 196.489C450.695 194.76 448.633 193.889 446.231 193.889V194.889C448.362 194.889 450.167 195.65 451.673 197.189L452.388 196.489ZM446.231 193.889C443.829 193.889 441.752 194.76 440.027 196.485L440.734 197.192C442.276 195.651 444.099 194.889 446.231 194.889V193.889ZM440.027 196.485C438.333 198.179 437.481 200.24 437.481 202.639H438.481C438.481 200.504 439.228 198.698 440.734 197.192L440.027 196.485ZM444.034 224.835C443.495 224.296 443.231 223.657 443.231 222.889H442.231C442.231 223.921 442.599 224.815 443.327 225.542L444.034 224.835ZM443.231 222.889C443.231 222.121 443.495 221.481 444.034 220.942L443.327 220.235C442.599 220.963 442.231 221.857 442.231 222.889H443.231ZM444.034 220.942C444.573 220.403 445.212 220.139 445.981 220.139V219.139C444.949 219.139 444.055 219.508 443.327 220.235L444.034 220.942ZM445.981 220.139C446.749 220.139 447.388 220.403 447.927 220.942L448.634 220.235C447.907 219.508 447.012 219.139 445.981 219.139V220.139ZM447.927 220.942C448.466 221.481 448.731 222.121 448.731 222.889H449.731C449.731 221.857 449.362 220.963 448.634 220.235L447.927 220.942ZM448.731 222.889C448.731 223.657 448.466 224.296 447.927 224.835L448.634 225.542C449.362 224.815 449.731 223.921 449.731 222.889H448.731ZM447.927 224.835C447.388 225.374 446.749 225.639 445.981 225.639V226.639C447.012 226.639 447.907 226.27 448.634 225.542L447.927 224.835ZM445.981 225.639C445.212 225.639 444.573 225.374 444.034 224.835L443.327 225.542C444.055 226.27 444.949 226.639 445.981 226.639V225.639Z" fill="black"/>
</svg>
